<svg width="332" height="394" viewBox="0 0 332 394" fill="none" xmlns="http://www.w3.org/2000/svg">
<line x1="-467.793" y1="6.96057" x2="331.719" y2="-20.959" stroke="white" stroke-width="2"/>
<line x1="-467.098" y1="20.9038" x2="330.954" y2="-34.9014" stroke="white" stroke-width="2"/>
<line x1="-465.913" y1="34.818" x2="329.705" y2="-48.8048" stroke="white" stroke-width="2"/>
<line x1="-464.247" y1="48.6806" x2="327.967" y2="-62.6579" stroke="white" stroke-width="2"/>
<line x1="-462.098" y1="62.4752" x2="325.748" y2="-76.4434" stroke="white" stroke-width="2"/>
<line x1="-459.465" y1="76.1869" x2="323.053" y2="-90.1425" stroke="white" stroke-width="2"/>
<line x1="-456.363" y1="89.7983" x2="319.874" y2="-103.739" stroke="white" stroke-width="2"/>
<line x1="-452.782" y1="103.294" x2="316.227" y2="-117.216" stroke="white" stroke-width="2"/>
<line x1="-448.73" y1="116.653" x2="312.115" y2="-130.56" stroke="white" stroke-width="2"/>
<line x1="-444.222" y1="129.868" x2="307.532" y2="-143.748" stroke="white" stroke-width="2"/>
<line x1="-439.246" y1="142.916" x2="302.501" y2="-156.77" stroke="white" stroke-width="2"/>
<line x1="-433.824" y1="155.781" x2="297.013" y2="-169.609" stroke="white" stroke-width="2"/>
<line x1="-427.954" y1="168.45" x2="291.081" y2="-182.247" stroke="white" stroke-width="2"/>
<line x1="-421.651" y1="180.905" x2="284.707" y2="-194.672" stroke="white" stroke-width="2"/>
<line x1="-414.911" y1="193.134" x2="277.909" y2="-206.866" stroke="white" stroke-width="2"/>
<line x1="-407.75" y1="205.12" x2="270.689" y2="-218.816" stroke="white" stroke-width="2"/>
<line x1="-400.174" y1="216.849" x2="263.056" y2="-230.506" stroke="white" stroke-width="2"/>
<line x1="-392.194" y1="228.305" x2="255.02" y2="-241.923" stroke="white" stroke-width="2"/>
<line x1="-383.819" y1="239.478" x2="246.589" y2="-253.052" stroke="white" stroke-width="2"/>
<line x1="-375.061" y1="250.349" x2="237.774" y2="-263.881" stroke="white" stroke-width="2"/>
<line x1="-365.926" y1="260.911" x2="228.589" y2="-274.393" stroke="white" stroke-width="2"/>
<line x1="-356.433" y1="271.144" x2="219.038" y2="-284.583" stroke="white" stroke-width="2"/>
<line x1="-346.586" y1="281.042" x2="209.141" y2="-294.43" stroke="white" stroke-width="2"/>
<line x1="-336.397" y1="290.588" x2="198.907" y2="-303.928" stroke="white" stroke-width="2"/>
<line x1="-325.882" y1="299.774" x2="188.348" y2="-313.061" stroke="white" stroke-width="2"/>
<line x1="-315.05" y1="308.589" x2="177.479" y2="-321.819" stroke="white" stroke-width="2"/>
<line x1="-303.923" y1="317.02" x2="166.305" y2="-330.194" stroke="white" stroke-width="2"/>
<line x1="-292.505" y1="325.058" x2="154.849" y2="-338.172" stroke="white" stroke-width="2"/>
<line x1="-280.817" y1="332.69" x2="143.119" y2="-345.749" stroke="white" stroke-width="2"/>
<line x1="-268.866" y1="339.91" x2="131.134" y2="-352.91" stroke="white" stroke-width="2"/>
<line x1="-256.672" y1="346.71" x2="118.905" y2="-359.648" stroke="white" stroke-width="2"/>
<line x1="-244.247" y1="353.081" x2="106.449" y2="-365.954" stroke="white" stroke-width="2"/>
<line x1="-231.611" y1="359.011" x2="93.7785" y2="-371.825" stroke="white" stroke-width="2"/>
<line x1="-218.77" y1="364.5" x2="80.9153" y2="-377.247" stroke="white" stroke-width="2"/>
<line x1="-205.748" y1="369.535" x2="67.8678" y2="-382.219" stroke="white" stroke-width="2"/>
<line x1="-192.558" y1="374.113" x2="54.6561" y2="-386.732" stroke="white" stroke-width="2"/>
<line x1="-179.216" y1="378.228" x2="41.2937" y2="-390.781" stroke="white" stroke-width="2"/>
<line x1="-165.739" y1="381.876" x2="27.7987" y2="-394.36" stroke="white" stroke-width="2"/>
<line x1="-152.142" y1="385.05" x2="14.1871" y2="-397.468" stroke="white" stroke-width="2"/>
<line x1="-138.443" y1="387.75" x2="0.475727" y2="-400.096" stroke="white" stroke-width="2"/>
<line x1="0.4732" y1="388.097" x2="-138.445" y2="-399.749" stroke="white" stroke-width="2"/>
<line x1="14.1859" y1="385.466" x2="-152.143" y2="-397.052" stroke="white" stroke-width="2"/>
<line x1="27.7983" y1="382.36" x2="-165.739" y2="-393.876" stroke="white" stroke-width="2"/>
<line x1="41.2936" y1="378.78" x2="-179.216" y2="-390.23" stroke="white" stroke-width="2"/>
<line x1="54.6554" y1="374.731" x2="-192.558" y2="-386.114" stroke="white" stroke-width="2"/>
<line x1="67.8689" y1="370.219" x2="-205.747" y2="-381.535" stroke="white" stroke-width="2"/>
<line x1="80.9156" y1="365.25" x2="-218.77" y2="-376.497" stroke="white" stroke-width="2"/>
<line x1="93.7827" y1="359.825" x2="-231.607" y2="-371.012" stroke="white" stroke-width="2"/>
<line x1="106.45" y1="353.958" x2="-244.247" y2="-365.077" stroke="white" stroke-width="2"/>
<line x1="118.906" y1="347.649" x2="-256.671" y2="-358.709" stroke="white" stroke-width="2"/>
<line x1="131.134" y1="340.91" x2="-268.866" y2="-351.91" stroke="white" stroke-width="2"/>
<line x1="143.118" y1="333.75" x2="-280.818" y2="-344.689" stroke="white" stroke-width="2"/>
<line x1="154.848" y1="326.176" x2="-292.507" y2="-337.054" stroke="white" stroke-width="2"/>
<line x1="166.305" y1="318.197" x2="-303.923" y2="-329.016" stroke="white" stroke-width="2"/>
<line x1="177.475" y1="309.822" x2="-315.055" y2="-320.587" stroke="white" stroke-width="2"/>
<line x1="188.346" y1="301.063" x2="-325.884" y2="-311.773" stroke="white" stroke-width="2"/>
<line x1="198.911" y1="291.928" x2="-336.393" y2="-302.588" stroke="white" stroke-width="2"/>
<line x1="209.142" y1="282.431" x2="-346.585" y2="-293.041" stroke="white" stroke-width="2"/>
<line x1="219.039" y1="272.583" x2="-356.433" y2="-283.144" stroke="white" stroke-width="2"/>
<line x1="228.588" y1="262.397" x2="-365.928" y2="-272.907" stroke="white" stroke-width="2"/>
<line x1="237.773" y1="251.881" x2="-375.062" y2="-262.349" stroke="white" stroke-width="2"/>
<line x1="246.587" y1="241.054" x2="-383.821" y2="-251.476" stroke="white" stroke-width="2"/>
<line x1="255.019" y1="229.924" x2="-392.195" y2="-240.304" stroke="white" stroke-width="2"/>
<line x1="263.056" y1="218.509" x2="-400.174" y2="-228.846" stroke="white" stroke-width="2"/>
<line x1="270.69" y1="206.817" x2="-407.749" y2="-217.119" stroke="white" stroke-width="2"/>
<line x1="277.908" y1="194.866" x2="-414.912" y2="-205.134" stroke="white" stroke-width="2"/>
<line x1="284.712" y1="182.671" x2="-421.646" y2="-192.906" stroke="white" stroke-width="2"/>
<line x1="291.077" y1="170.248" x2="-427.958" y2="-180.449" stroke="white" stroke-width="2"/>
<line x1="297.01" y1="157.609" x2="-433.826" y2="-167.78" stroke="white" stroke-width="2"/>
<line x1="302.497" y1="144.77" x2="-439.25" y2="-154.915" stroke="white" stroke-width="2"/>
<line x1="307.532" y1="131.747" x2="-444.222" y2="-141.869" stroke="white" stroke-width="2"/>
<line x1="312.112" y1="118.558" x2="-448.733" y2="-128.655" stroke="white" stroke-width="2"/>
<line x1="316.226" y1="105.217" x2="-452.783" y2="-115.293" stroke="white" stroke-width="2"/>
<line x1="319.873" y1="91.7389" x2="-456.363" y2="-101.799" stroke="white" stroke-width="2"/>
<line x1="323.05" y1="78.1432" x2="-459.468" y2="-88.1862" stroke="white" stroke-width="2"/>
<line x1="325.745" y1="64.4457" x2="-462.101" y2="-74.4728" stroke="white" stroke-width="2"/>
<line x1="327.968" y1="50.6612" x2="-464.246" y2="-60.6773" stroke="white" stroke-width="2"/>
<line x1="329.703" y1="36.808" x2="-465.914" y2="-46.8148" stroke="white" stroke-width="2"/>
<line x1="330.953" y1="22.9019" x2="-467.099" y2="-32.9033" stroke="white" stroke-width="2"/>
<line x1="331.723" y1="8.95935" x2="-467.79" y2="-18.9602" stroke="white" stroke-width="2"/>
</svg>
